# File created by Blade
# Date/Time:  Mon Nov 15 14:44:42 2010
#---------------------------------------------------------
:version 1.10
:name HOM
:units
  mass 1.0
  length 1.000000
  angle deg
:documentation
     Acclaim Skeleton File
:root
   axis xyz
   order TX TY TZ RX RY RZ
   position 0.000000 0.000000 0.000000
   orientation 0 0 0
:bonedata
   begin
      id 1
      name LeftUpLeg_dum
      direction 1.000000 0.000000 0.000000
      length 4.719518
      axis 0.0 0.0 0.0 xyz
   end
   begin
      id 2
      name RightUpLeg_dum
      direction -1.000000 0.000000 0.000000
      length 4.719518
      axis 0.0 0.0 0.0 xyz
   end
   begin
      id 3
      name Spine_dum
      direction 0.000000 1.000000 0.000000
      length 0.039370
      axis 0.0 0.0 0.0 xyz
   end
   begin
      id 4
      name LeftUpLeg
      direction 0.000000 -1.000000 0.000000
      length 19.141694
      axis 0.0 0.0 0.0 xyz
      dof rx ry rz
   end
   begin
      id 5
      name LeftLeg
      direction 0.000000 -1.000000 0.000000
      length 19.555040
      axis 0.0 0.0 0.0 xyz
      dof rx ry rz
   end
   begin
      id 6
      name LeftFoot
      direction 0.000000 -0.258819 0.965926
      length 6.929396
      axis 15.0 0.0 0.0 xyz
      dof rx ry rz
   end
   begin
      id 7
      name LeftToeBase
      direction 0.000000 0.000000 1.000000
      length 2.952750
      axis 0.0 0.0 0.0 xyz
      dof rx ry rz
   end
   begin
      id 8
      name RightUpLeg
      direction 0.000000 -1.000000 0.000000
      length 19.141694
      axis 0.0 0.0 0.0 xyz
      dof rx ry rz
   end
   begin
      id 9
      name RightLeg
      direction 0.000000 -1.000000 0.000000
      length 19.555040
      axis 0.0 0.0 0.0 xyz
      dof rx ry rz
   end
   begin
      id 10
      name RightFoot
      direction 0.000000 -0.258819 0.965926
      length 6.929396
      axis 15.0 0.0 0.0 xyz
      dof rx ry rz
   end
   begin
      id 11
      name RightToeBase
      direction 0.000000 0.000000 1.000000
      length 2.952750
      axis 0.0 0.0 0.0 xyz
      dof rx ry rz
   end
   begin
      id 12
      name Spine
      direction 0.000000 1.000000 0.000000
      length 11.965764
      axis 0.0 0.0 0.0 xyz
      dof rx ry rz
   end
   begin
      id 13
      name Spine1
      direction 0.000000 1.000000 0.000000
      length 0.000000
      axis 0.0 0.0 0.0 xyz
      dof rx ry rz
   end
   begin
      id 14
      name Spine1_dum1
      direction 0.000000 1.000000 0.000000
      length 9.788721
      axis 0.0 0.0 0.0 xyz
   end
   begin
      id 15
      name Spine1_dum2
      direction 0.000000 1.000000 0.000000
      length 9.788721
      axis 0.0 0.0 0.0 xyz
   end
   begin
      id 16
      name Spine1_dum3
      direction 0.000000 1.000000 0.000000
      length 9.788721
      axis 0.0 0.0 0.0 xyz
   end
   begin
      id 17
      name Neck
      direction 0.000000 1.000000 0.000000
      length 7.029632
      axis 0.0 0.0 0.0 xyz
      dof rx ry rz
   end
   begin
      id 18
      name Head
      direction 0.000000 1.000000 0.000000
      length 4.527550
      axis 0.0 0.0 0.0 xyz
      dof rx ry rz
   end
   begin
      id 19
      name LeftShoulder
      direction 1.000000 -0.000004 0.000000
      length 9.320257
      axis 0.0 0.0 -90.0 xyz
      dof rx ry rz
   end
   begin
      id 20
      name LeftArm
      direction 1.000000 -0.000004 0.000000
      length 12.801352
      axis 0.0 0.0 -90.0 xyz
      dof rx ry rz
   end
   begin
      id 21
      name LeftForeArm
      direction 1.000000 -0.000004 0.000000
      length 11.278127
      axis 0.0 0.0 -90.0 xyz
      dof rx ry rz
   end
   begin
      id 22
      name LeftHand
      direction 0.000000 0.000000 0.000000
      length 0.000000
      axis 0.0 0.0 -90.0 xyz
      dof rx ry rz
   end
   begin
      id 23
      name LeftHand_dum1
      direction 0.000000 0.000000 0.000000
      length 0.000000
      axis 0.0 0.0 -90.0 xyz
   end
   begin
      id 24
      name LeftHand_dum2
      direction 1.000000 -0.000004 0.000000
      length 3.937000
      axis 0.0 0.0 -90.0 xyz
   end
   begin
      id 25
      name LeftHandThumb
      direction 0.000000 0.000000 1.000000
      length 3.937000
      axis 0.0 0.0 -90.0 xyz
      dof rx ry rz
   end
   begin
      id 26
      name RightShoulder
      direction -1.000000 -0.000004 0.000000
      length 9.320257
      axis 0.0 0.0 90.0 xyz
      dof rx ry rz
   end
   begin
      id 27
      name RightArm
      direction -1.000000 -0.000004 0.000000
      length 12.801352
      axis 0.0 0.0 90.0 xyz
      dof rx ry rz
   end
   begin
      id 28
      name RightForeArm
      direction -1.000000 -0.000004 0.000000
      length 11.278127
      axis 0.0 0.0 90.0 xyz
      dof rx ry rz
   end
   begin
      id 29
      name RightHand
      direction 0.000000 0.000000 0.000000
      length 0.000000
      axis 0.0 0.0 90.0 xyz
      dof rx ry rz
   end
   begin
      id 30
      name RightHand_dum1
      direction 0.000000 0.000000 0.000000
      length 0.000000
      axis 0.0 0.0 90.0 xyz
   end
   begin
      id 31
      name RightHand_dum2
      direction -1.000000 -0.000004 0.000000
      length 5.393690
      axis 0.0 0.0 90.0 xyz
   end
   begin
      id 32
      name RightHandThumb
      direction 0.000000 0.000000 1.000000
      length 3.937000
      axis 0.0 0.0 90.0 xyz
      dof rx ry rz
   end
:hierarchy
   begin
      root LeftUpLeg_dum RightUpLeg_dum Spine_dum
      LeftUpLeg_dum LeftUpLeg
      RightUpLeg_dum RightUpLeg
      Spine_dum Spine
      LeftUpLeg LeftLeg
      LeftLeg LeftFoot
      LeftFoot LeftToeBase
      RightUpLeg RightLeg
      RightLeg RightFoot
      RightFoot RightToeBase
      Spine Spine1
      Spine1 Spine1_dum1 Spine1_dum2 Spine1_dum3
      Spine1_dum1 Neck
      Spine1_dum2 LeftShoulder
      Spine1_dum3 RightShoulder
      Neck Head
      LeftShoulder LeftArm
      LeftArm LeftForeArm
      LeftForeArm LeftHand
      LeftHand LeftHand_dum1 LeftHand_dum2
      LeftHand_dum1 LeftHandThumb
      RightShoulder RightArm
      RightArm RightForeArm
      RightForeArm RightHand
      RightHand RightHand_dum1 RightHand_dum2
      RightHand_dum1 RightHandThumb
   end

# File created by Blade
# Date/Time:  Mon Nov 15 14:56:25 2010
# Frame Rate: 200.000 fps
#------------------------------------------------------
:FULLY-SPECIFIED
:DEGREES
480
root  5.836846 37.768261 8.904678 -8.850399 10.194867 2.928964
LeftUpLeg  30.671691 4.999091 1.692717
LeftLeg  20.466347 -0.000000 0.000000
LeftFoot  14.907533 -3.140581 -0.623664
LeftToeBase  -56.482946 0.000000 -0.000000
RightUpLeg  -21.595297 -3.785547 0.088372
RightLeg  18.419859 -0.000000 0.000000
RightFoot  12.656086 -18.798481 -19.220318
RightToeBase  -36.557212 0.000000 -0.000000
Spine  11.846226 -5.166223 -2.065600
Spine1  2.903086 -3.522349 -1.510958
Neck  14.502415 -4.675971 -1.353346
Head  -20.872415 -6.021471 4.883762
LeftShoulder  -6.717772 8.839216 4.565079
LeftArm  36.188263 9.273242 -70.550540
LeftForeArm  53.528374 -0.000000 -0.000000
LeftHand  -2.759211 7.269057 -2.691364
LeftHandThumb  0.000000 -0.000000 0.000000
RightShoulder  -16.175967 -16.604074 6.051632
RightArm  8.221337 -15.854041 75.473456
RightForeArm  11.374195 -0.000000 0.000000
RightHand  -10.156985 -5.117656 21.189053
RightHandThumb  0.000000 -0.000000 0.000000
481
root  5.785471 37.796952 9.359362 -9.188798 9.928767 2.345368
LeftUpLeg  30.136506 5.216653 2.547036
LeftLeg  22.403576 -0.000000 0.000000
LeftFoot  16.708676 -2.907861 -0.352280
LeftToeBase  -56.831155 0.000000 -0.000000
RightUpLeg  -21.428121 -3.105405 0.634389
RightLeg  19.623177 -0.000000 0.000000
RightFoot  12.626209 -19.390294 -18.075016
RightToeBase  -36.270294 0.000000 -0.000000
Spine  11.983488 -5.170616 -1.725229
Spine1  2.883286 -3.387955 -1.180548
Neck  14.335248 -4.670648 -1.331335
Head  -20.439914 -5.943291 4.532830
LeftShoulder  -6.871622 8.931027 4.484047
LeftArm  35.792274 9.142212 -70.827769
LeftForeArm  53.546086 -0.000000 -0.000000
LeftHand  -2.589106 7.230726 -2.558319
LeftHandThumb  0.000000 -0.000000 0.000000
RightShoulder  -16.020406 -16.539746 5.840938
RightArm  8.385689 -15.961479 75.485694
RightForeArm  11.222771 -0.000000 0.000000
RightHand  -10.284612 -5.102380 21.125402
RightHandThumb  0.000000 -0.000000 0.000000
482
root  5.745814 37.826535 9.815756 -9.616640 9.673610 1.816660
LeftUpLeg  29.613692 5.306530 3.225336
LeftLeg  24.417547 -0.000000 0.000000
LeftFoot  18.533152 -2.467302 0.082700
LeftToeBase  -56.118055 0.000000 -0.000000
RightUpLeg  -21.186655 -2.781838 1.218136
RightLeg  20.900578 -0.000000 0.000000
RightFoot  12.376795 -19.456552 -17.017921
RightToeBase  -35.527215 0.000000 -0.000000
Spine  12.159191 -5.187231 -1.386096
Spine1  2.955953 -3.260859 -0.949918
Neck  14.203290 -4.685252 -1.277021
Head  -20.144354 -5.835059 4.206001
LeftShoulder  -7.028299 8.938547 4.508207
LeftArm  35.314940 9.073202 -71.201801
LeftForeArm  53.455329 -0.000000 -0.000000
LeftHand  -2.417429 7.397797 -2.341844
LeftHandThumb  0.000000 -0.000000 0.000000
RightShoulder  -15.829441 -16.392598 5.574688
RightArm  8.485698 -16.007428 75.577127
RightForeArm  11.163158 -0.000000 0.000000
RightHand  -10.644480 -5.294862 21.209038
RightHandThumb  0.000000 -0.000000 0.000000
483
root  5.708111 37.857434 10.272731 -10.041755 9.414583 1.290298
LeftUpLeg  29.091903 5.402560 3.902887
LeftLeg  26.431518 -0.000000 0.000000
LeftFoot  20.360378 -2.040811 0.531366
LeftToeBase  -55.404955 0.000000 -0.000000
RightUpLeg  -20.941965 -2.460748 1.803092
RightLeg  22.177980 -0.000000 0.000000
RightFoot  12.126028 -19.518458 -15.960111
RightToeBase  -34.784136 0.000000 -0.000000
Spine  12.334798 -5.204881 -1.047007
Spine1  3.029123 -3.134055 -0.719156
Neck  14.071315 -4.699732 -1.222671
Head  -19.849477 -5.725153 3.879801
LeftShoulder  -7.184975 8.946132 4.532346
LeftArm  34.838166 9.001119 -71.575165
LeftForeArm  53.364573 -0.000000 -0.000000
LeftHand  -2.245050 7.564223 -2.124782
LeftHandThumb  0.000000 -0.000000 0.000000
RightShoulder  -15.639334 -16.244600 5.309151
RightArm  8.585653 -16.053531 75.668497
RightForeArm  11.103546 -0.000000 0.000000
RightHand  -11.004743 -5.486816 21.293914
RightHandThumb  0.000000 -0.000000 0.000000
484
root  5.664462 37.889819 10.730179 -10.510944 9.172863 0.715252
LeftUpLeg  28.506603 5.418508 4.592036
LeftLeg  28.593108 -0.000000 0.000000
LeftFoot  22.020182 -1.521568 1.154195
LeftToeBase  -53.240967 0.000000 -0.000000
RightUpLeg  -20.453242 -2.317813 2.477021
RightLeg  23.125118 -0.000000 0.000000
RightFoot  11.408989 -19.647581 -14.987417
RightToeBase  -33.140012 0.000000 -0.000000
Spine  12.550564 -5.245191 -0.715425
Spine1  3.069913 -3.030681 -0.435281
Neck  14.053996 -4.675105 -1.203874
Head  -19.685223 -5.644670 3.645627
LeftShoulder  -7.275693 9.006130 4.579698
LeftArm  34.256195 8.851518 -72.049195
LeftForeArm  53.305923 -0.000000 -0.000000
LeftHand  -2.261318 7.982707 -2.035101
LeftHandThumb  0.000000 -0.000000 0.000000
RightShoulder  -15.379203 -16.168140 4.989550
RightArm  8.708449 -16.012258 75.809078
RightForeArm  11.096592 -0.000000 0.000000
RightHand  -11.350180 -5.747630 21.337669
RightHandThumb  0.000000 -0.000000 0.000000
485
root  5.619572 37.923400 11.186889 -10.977335 8.926517 0.142620
LeftUpLeg  27.921520 5.441464 5.281007
LeftLeg  30.754698 -0.000000 0.000000
LeftFoot  23.685203 -1.020603 1.791681
LeftToeBase  -51.076980 0.000000 -0.000000
RightUpLeg  -19.962918 -2.180636 3.152082
RightLeg  24.072257 -0.000000 0.000000
RightFoot  10.689171 -19.765204 -14.012331
RightToeBase  -31.495888 0.000000 -0.000000
Spine  12.766107 -5.286744 -0.383975
Spine1  3.111212 -2.927509 -0.151359
Neck  14.036685 -4.650473 -1.185085
Head  -19.521324 -5.563520 3.411718
LeftShoulder  -7.366376 9.066201 4.626962
LeftArm  33.675734 8.697174 -72.521468
LeftForeArm  53.247273 -0.000000 -0.000000
LeftHand  -2.276942 8.401216 -1.945447
LeftHandThumb  0.000000 -0.000000 0.000000
RightShoulder  -15.119622 -16.090288 4.670438
RightArm  8.831323 -15.971274 75.949721
RightForeArm  11.089639 -0.000000 0.000000
RightHand  -11.695979 -6.008176 21.383024
RightHandThumb  0.000000 -0.000000 0.000000
486
root  5.575640 37.957569 11.642062 -11.448460 8.689623 -0.389033
LeftUpLeg  27.305167 5.410465 5.902605
LeftLeg  32.863559 -0.000000 0.000000
LeftFoot  25.366839 -0.481553 1.959463
LeftToeBase  -47.024632 0.000000 -0.000000
RightUpLeg  -19.281191 -2.204876 3.822352
RightLeg  24.730225 -0.000000 0.000000
RightFoot  9.811700 -20.017273 -13.440971
RightToeBase  -31.719845 0.000000 -0.000000
Spine  12.973182 -5.327479 -0.087811
Spine1  3.191847 -2.836407 0.087575
Neck  14.096690 -4.560962 -1.215821
Head  -19.486292 -5.558623 3.401905
LeftShoulder  -7.436403 9.113617 4.751077
LeftArm  33.075656 8.571539 -73.040257
LeftForeArm  53.107089 -0.000000 0.000000
LeftHand  -2.269211 8.311128 -1.924564
LeftHandThumb  0.000000 -0.000000 0.000000
RightShoulder  -14.828507 -16.002700 4.358686
RightArm  8.956588 -15.974710 76.085178
RightForeArm  11.156124 -0.000000 0.000000
RightHand  -12.220389 -6.474025 21.664070
RightHandThumb  0.000000 -0.000000 0.000000
487
root  5.532279 37.993451 12.094354 -11.917047 8.448429 -0.918364
LeftUpLeg  26.688540 5.386127 6.524475
LeftLeg  34.972421 -0.000000 0.000000
LeftFoot  27.049986 0.052338 2.142987
LeftToeBase  -42.972284 0.000000 -0.000000
RightUpLeg  -18.599781 -2.237083 4.492299
RightLeg  25.388193 -0.000000 0.000000
RightFoot  8.930199 -20.261066 -12.864656
RightToeBase  -31.943802 0.000000 -0.000000
Spine  13.180057 -5.369280 0.208223
Spine1  3.272855 -2.745642 0.326619
Neck  14.156639 -4.471419 -1.246460
Head  -19.451261 -5.553720 3.392096
LeftShoulder  -7.506335 9.161181 4.875149
LeftArm  32.476954 8.440545 -73.557514
LeftForeArm  52.966906 -0.000000 0.000000
LeftHand  -2.261515 8.221036 -1.903697
LeftHandThumb  0.000000 -0.000000 0.000000
RightShoulder  -14.538021 -15.913593 4.047537
RightArm  9.081845 -15.978430 76.220628
RightForeArm  11.222608 -0.000000 0.000000
RightHand  -12.747595 -6.937291 21.949666
RightHandThumb  0.000000 -0.000000 0.000000
488
root  5.489935 38.032049 12.541924 -12.353282 8.242690 -1.400247
LeftUpLeg  25.989964 5.322316 7.057432
LeftLeg  37.046243 -0.000000 0.000000
LeftFoot  28.351470 0.549846 2.574817
LeftToeBase  -36.261344 0.000000 -0.000000
RightUpLeg  -17.790249 -2.410584 5.135143
RightLeg  25.758699 -0.000000 0.000000
RightFoot  8.163319 -20.177663 -12.712734
RightToeBase  -31.186458 0.000000 -0.000000
Spine  13.380068 -5.406035 0.467529
Spine1  3.358458 -2.664129 0.539108
Neck  14.200783 -4.428189 -1.261562
Head  -19.439808 -5.559181 3.420792
LeftShoulder  -7.619647 9.159519 4.984841
LeftArm  31.921706 8.412479 -74.016272
LeftForeArm  52.699305 -0.000000 0.000000
LeftHand  -2.201095 7.377416 -2.116810
LeftHandThumb  0.000000 -0.000000 0.000000
RightShoulder  -14.242105 -15.793254 3.774793
RightArm  9.166747 -15.963322 76.335873
RightForeArm  11.414203 -0.000000 0.000000
RightHand  -12.839333 -6.732971 21.778819
RightHandThumb  0.000000 -0.000000 0.000000
489
root  5.448298 38.073128 12.985468 -12.787529 8.033335 -1.880285
LeftUpLeg  25.290891 5.264982 7.591079
LeftLeg  39.120065 -0.000000 0.000000
LeftFoot  29.656821 1.037402 3.017888
LeftToeBase  -29.550405 0.000000 -0.000000
RightUpLeg  -16.982606 -2.593132 5.775556
RightLeg  26.129204 -0.000000 0.000000
RightFoot  7.397092 -20.092359 -12.562095
RightToeBase  -30.429114 0.000000 -0.000000
Spine  13.579922 -5.443691 0.726720
Spine1  3.444358 -2.582933 0.751704
Neck  14.244914 -4.384946 -1.276631
Head  -19.428357 -5.564648 3.449487
LeftShoulder  -7.732962 9.158071 5.094537
LeftArm  31.366746 8.380018 -74.474699
LeftForeArm  52.431704 -0.000000 0.000000
LeftHand  -2.137626 6.534024 -2.330436
LeftHandThumb  0.000000 -0.000000 0.000000
RightShoulder  -13.946963 -15.671564 3.502859
RightArm  9.251673 -15.948377 76.451132
RightForeArm  11.605798 -0.000000 0.000000
RightHand  -12.931646 -6.528924 21.607714
RightHandThumb  0.000000 -0.000000 0.000000
490
root  5.408658 38.116030 13.425217 -13.161841 7.874885 -2.278679
LeftUpLeg  24.535605 5.229417 8.045997
LeftLeg  41.037988 -0.000000 0.000000
LeftFoot  30.695540 1.625917 3.613132
LeftToeBase  -23.471704 0.000000 -0.000000
RightUpLeg  -16.127791 -3.078429 6.354146
RightLeg  26.303821 -0.000000 0.000000
RightFoot  6.771194 -19.965059 -12.894240
RightToeBase  -29.899663 0.000000 -0.000000
Spine  13.716690 -5.439841 0.931361
Spine1  3.569195 -2.484262 0.930454
Neck  14.257097 -4.433402 -1.284136
Head  -19.355252 -5.626588 3.511558
LeftShoulder  -7.773398 9.235047 5.174994
LeftArm  30.985911 8.340368 -74.854815
LeftForeArm  52.030505 -0.000000 0.000000
LeftHand  -2.214037 6.514394 -2.407484
LeftHandThumb  0.000000 -0.000000 0.000000
RightShoulder  -13.740767 -15.491919 3.291903
RightArm  9.351489 -15.935481 76.542825
RightForeArm  11.761919 -0.000000 0.000000
RightHand  -13.086190 -6.661332 21.702799
RightHandThumb  0.000000 -0.000000 0.000000
491
root  5.366662 38.163033 13.860721 -13.534890 7.713866 -2.675868
LeftUpLeg  23.780099 5.199827 8.501323
LeftLeg  42.955911 -0.000000 0.000000
LeftFoot  31.740673 2.203515 4.219156
LeftToeBase  -17.393003 0.000000 -0.000000
RightUpLeg  -15.277505 -3.572270 6.925704
RightLeg  26.478438 -0.000000 0.000000
RightFoot  6.145018 -19.841176 -13.227579
RightToeBase  -29.370212 0.000000 -0.000000
Spine  13.853470 -5.436477 1.136010
Spine1  3.694330 -2.385980 1.109406
Neck  14.269287 -4.481856 -1.291652
Head  -19.282207 -5.688607 3.573557
LeftShoulder  -7.813732 9.312079 5.255414
LeftArm  30.605389 8.298220 -75.234618
LeftForeArm  51.629305 -0.000000 0.000000
LeftHand  -2.290418 6.494662 -2.484502
LeftHandThumb  0.000000 -0.000000 0.000000
RightShoulder  -13.535436 -15.311547 3.081800
RightArm  9.451319 -15.922739 76.634535
RightForeArm  11.918040 -0.000000 0.000000
RightHand  -13.240997 -6.793485 21.798270
RightHandThumb  0.000000 -0.000000 0.000000
